# 3ds Max Wavefront OBJ Exporter v0.97b - (c)2007 guruware
# File Created: 11.05.2021 00:38:40

mtllib AsteriscoLowPolyLejos3.mtl

#
# object NGon01
#

v  -12.2481 -3.9797 5.2801
v  -24.3536 1.0960 3.3824
v  -17.3961 -10.1568 3.6863
v  -28.5547 8.8585 3.0705
v  -17.4099 -5.6568 0.0000
v  -25.0556 -0.9447 0.0000
v  0.0000 -0.0000 6.8253
v  -7.5698 10.4189 5.2801
v  -9.7242 13.3842 3.9903
v  -20.3466 13.4280 3.3824
v  -10.7599 14.8097 0.0000
v  -19.7151 15.4916 0.0000
v  -7.5698 10.4189 -5.2800
v  -20.3467 13.4280 -3.3824
v  -9.7242 13.3842 -3.9903
v  -28.5547 8.8585 -3.0705
v  -15.7340 -5.1123 -3.9903
v  -24.3536 1.0960 -3.3824
v  -12.2481 -3.9797 -5.2800
v  -0.0000 0.0000 -6.8253
v  -35.7414 7.0928 0.0000
v  -34.4016 13.7945 0.0000
v  -31.9568 3.2398 2.3837
v  -32.9613 1.9953 0.0000
v  -29.5102 16.1647 2.0849
v  -29.8032 17.2528 0.0000
v  -29.5102 16.1647 -2.0849
v  -31.9568 3.2398 -2.3837
v  7.5698 10.4189 5.2801
v  9.7242 13.3842 3.9903
v  6.4833 23.5003 3.3824
v  0.3990 29.8945 3.0705
v  10.7599 14.8097 0.0000
v  8.6411 23.5374 0.0000
v  -6.4833 23.5003 3.3824
v  -8.6411 23.5374 0.0000
v  -6.4833 23.5003 -3.3824
v  0.3990 29.8945 -3.0705
v  9.7242 13.3842 -3.9903
v  7.5698 10.4189 -5.2800
v  6.4833 23.5003 -3.3824
v  4.2991 36.1839 -0.0000
v  -2.4887 36.9806 -0.0000
v  6.7939 31.3939 2.3837
v  8.2879 31.9646 0.0000
v  -6.2544 33.0611 2.0849
v  -7.1987 33.6759 0.0000
v  -6.2544 33.0611 -2.0849
v  6.7939 31.3939 -2.3837
v  -17.8943 -23.9506 3.0705
v  -20.8257 -13.9630 0.0000
v  -0.0000 -12.8784 5.2801
v  -0.0000 -16.5437 3.9903
v  -8.5680 -22.8230 3.3824
v  -0.0000 -18.3058 0.0000
v  -6.8441 -24.1213 0.0000
v  -0.0000 -12.8784 -5.2800
v  -0.0000 -16.5437 -3.9903
v  -8.5680 -22.8230 -3.3824
v  -17.8943 -23.9506 -3.0705
v  -19.0583 -15.2013 -3.3824
v  -24.7464 -26.7465 0.0000
v  -19.7233 -31.3808 0.0000
v  -23.9493 -21.4048 2.3837
v  -25.4934 -20.9884 0.0000
v  -14.3729 -30.4232 2.0849
v  -13.9704 -31.4757 0.0000
v  -14.3729 -30.4232 -2.0849
v  -23.9493 -21.4048 -2.3837
v  12.2481 -3.9797 5.2801
v  19.0583 -15.2013 3.3824
v  15.7340 -5.1123 3.9903
v  17.8943 -23.9506 3.0705
v  17.4099 -5.6568 0.0000
v  20.8257 -13.9630 0.0000
v  8.5680 -22.8230 3.3824
v  6.8441 -24.1213 0.0000
v  8.5680 -22.8230 -3.3824
v  17.8943 -23.9506 -3.0705
v  15.7340 -5.1123 -3.9903
v  19.0583 -15.2013 -3.3824
v  12.2481 -3.9797 -5.2800
v  24.7464 -26.7465 -0.0000
v  19.7233 -31.3808 -0.0000
v  23.9493 -21.4048 2.3837
v  25.4934 -20.9884 0.0000
v  14.3729 -30.4232 2.0849
v  13.9703 -31.4757 -0.0000
v  14.3729 -30.4232 -2.0849
v  23.9493 -21.4048 -2.3837
v  20.3467 13.4280 3.3824
v  28.3081 9.6174 3.0705
v  19.7151 15.4916 0.0000
v  24.3536 1.0960 3.3824
v  25.0556 -0.9447 0.0000
v  24.3536 1.0960 -3.3824
v  28.3081 9.6174 -3.0705
v  20.3467 13.4280 -3.3824
v  33.0845 15.2701 0.0000
v  35.9397 9.0608 0.0000
v  27.7579 16.1626 2.3837
v  27.8391 17.7599 0.0000
v  33.3757 4.2681 2.0849
v  34.2522 3.5601 0.0000
v  33.3757 4.2681 -2.0849
v  27.7579 16.1626 -2.3837
# 106 vertices

vn -0.1417 -0.0486 0.9887
vn -0.3764 -0.4133 0.8292
vn -0.5687 0.0093 0.8225
vn -0.2411 0.0661 0.9682
vn -0.8839 -0.3604 -0.2981
vn -0.5202 -0.8368 -0.1708
vn -0.0000 -0.0000 1.0000
vn -0.1019 0.1402 0.9849
vn -0.3148 0.4333 0.8445
vn -0.0174 0.5454 0.8380
vn -0.5878 0.8090 -0.0000
vn 0.1001 0.9950 -0.0000
vn -0.1019 0.1402 -0.9849
vn -0.0174 0.5454 -0.8380
vn -0.3148 0.4333 -0.8445
vn -0.2411 0.0661 -0.9682
vn -0.5093 -0.1655 -0.8445
vn -0.3133 -0.4304 -0.8466
vn -0.1649 -0.0536 -0.9848
vn -0.0000 -0.0000 -1.0000
vn -0.9997 0.0239 -0.0000
vn -0.9259 0.3778 -0.0000
vn -0.4430 -0.3636 0.8195
vn -0.6519 -0.7583 -0.0000
vn -0.2169 0.5743 0.7894
vn -0.2353 0.9719 -0.0000
vn -0.2169 0.5743 -0.7894
vn -0.4430 -0.3636 -0.8195
vn 0.1019 0.1403 0.9849
vn 0.3148 0.4333 0.8445
vn 0.5061 0.1649 0.8466
vn 0.0116 0.2498 0.9682
vn 0.5878 0.8090 0.0000
vn 0.9845 0.1752 -0.0000
vn -0.5133 0.1851 0.8380
vn -0.9772 0.2123 -0.0000
vn -0.5133 0.1851 -0.8380
vn 0.0116 0.2498 -0.9682
vn 0.3148 0.4333 -0.8445
vn 0.1019 0.1403 -0.9848
vn 0.5061 0.1649 -0.8466
vn 0.2862 0.9582 -0.0000
vn -0.0732 0.9973 -0.0000
vn 0.4827 0.3089 0.8195
vn 0.9226 0.3856 -0.0000
vn -0.4792 0.3837 0.7894
vn -0.8516 0.5241 -0.0000
vn -0.4792 0.3837 -0.7894
vn 0.4827 0.3089 -0.8195
vn -0.1573 -0.1915 0.9688
vn -0.8886 0.4562 -0.0475
vn 0.0000 -0.1733 0.9849
vn 0.0000 -0.5356 0.8445
vn 0.3065 -0.4515 0.8380
vn -0.0000 -1.0000 -0.0000
vn 0.6658 -0.7461 -0.0000
vn -0.0000 -0.1733 -0.9849
vn -0.0000 -0.5356 -0.8445
vn 0.3065 -0.4515 -0.8380
vn -0.1562 -0.1952 -0.9682
vn -0.5064 0.1640 -0.8466
vn -0.7947 -0.6070 -0.0000
vn -0.5270 -0.8499 -0.0000
vn -0.6019 0.0253 0.7982
vn -0.9741 0.2217 -0.0443
vn 0.1621 -0.5921 0.7894
vn 0.3809 -0.9246 -0.0000
vn 0.1621 -0.5921 -0.7894
vn -0.5721 0.0338 -0.8195
vn 0.1651 -0.0529 0.9849
vn 0.5064 0.1640 0.8466
vn 0.5093 -0.1655 0.8445
vn 0.1562 -0.1952 0.9682
vn 0.9511 -0.3090 -0.0000
vn 0.8995 0.4369 0.0000
vn -0.3065 -0.4515 0.8380
vn -0.6658 -0.7461 -0.0000
vn -0.3065 -0.4515 -0.8380
vn 0.1562 -0.1952 -0.9682
vn 0.5093 -0.1655 -0.8445
vn 0.5064 0.1640 -0.8466
vn 0.1651 -0.0529 -0.9849
vn 0.7947 -0.6070 -0.0000
vn 0.5270 -0.8499 -0.0000
vn 0.5721 0.0338 0.8195
vn 0.9731 0.2303 -0.0000
vn -0.1621 -0.5921 0.7894
vn -0.3809 -0.9246 -0.0000
vn -0.1621 -0.5921 -0.7894
vn 0.5721 0.0338 -0.8195
vn 0.0005 0.5323 0.8466
vn 0.2339 0.0883 0.9682
vn -0.1376 0.9905 0.0000
vn 0.3347 -0.4310 0.8380
vn 0.5039 -0.8638 -0.0000
vn 0.3347 -0.4310 -0.8380
vn 0.2339 0.0883 -0.9682
vn 0.0005 0.5323 -0.8466
vn 0.8229 0.5682 -0.0000
vn 0.9711 0.2385 -0.0000
vn 0.1446 0.5545 0.8195
vn 0.0817 0.9967 -0.0000
vn 0.5130 -0.3371 0.7894
vn 0.7617 -0.6480 -0.0000
vn 0.5130 -0.3371 -0.7894
vn 0.1446 0.5545 -0.8195
# 106 vertex normals

g NGon01
usemtl wire_134006006
s 2
f 1//1 2//2 3//3 
f 4//4 2//2 1//1 
f 5//5 3//3 2//2 6//6 
f 7//7 8//8 4//4 
f 9//9 10//10 8//8 
f 11//11 12//12 10//10 9//9 
f 4//4 8//8 10//10 
f 13//13 14//14 15//15 
f 16//16 14//14 13//13 
f 11//11 15//15 14//14 12//12 
f 17//17 18//18 19//19 
f 5//5 6//6 18//18 17//17 
f 16//16 19//19 18//18 
f 20//20 19//19 16//16 
f 21//21 4//4 22//22 
f 4//4 21//21 23//23 
f 23//23 24//24 6//6 2//2 
f 25//25 10//10 12//12 26//26 
f 4//4 25//25 22//22 
f 22//22 16//16 21//21 
f 26//26 27//27 22//22 
f 27//27 26//26 12//12 14//14 
f 28//28 21//21 16//16 
f 28//28 18//18 6//6 24//24 
f 4//4 23//23 2//2 
f 18//18 28//28 16//16 
f 10//10 25//25 4//4 
f 16//16 27//27 14//14 
f 7//7 4//4 1//1 
f 20//20 16//16 13//13 
f 29//29 30//30 31//31 
f 32//32 29//29 31//31 
f 33//33 34//34 31//31 30//30 
f 7//7 32//32 8//8 
f 9//9 8//8 35//35 
f 11//11 9//9 35//35 36//36 
f 32//32 35//35 8//8 
f 13//13 15//15 37//37 
f 38//38 13//13 37//37 
f 11//11 36//36 37//37 15//15 
f 39//39 40//40 41//41 
f 33//33 39//39 41//41 34//34 
f 38//38 41//41 40//40 
f 20//20 38//38 40//40 
f 42//42 43//43 32//32 
f 32//32 44//44 42//42 
f 44//44 31//31 34//34 45//45 
f 46//46 47//47 36//36 35//35 
f 32//32 43//43 46//46 
f 43//43 42//42 38//38 
f 47//47 43//43 48//48 
f 48//48 37//37 36//36 47//47 
f 49//49 42//42 45//45 
f 49//49 45//45 34//34 41//41 
f 32//32 31//31 44//44 
f 41//41 38//38 49//49 
f 35//35 32//32 46//46 
f 38//38 37//37 48//48 
f 7//7 29//29 32//32 
f 20//20 13//13 38//38 
f 50//50 1//1 3//3 
f 3//3 5//5 51//51 
f 7//7 50//50 52//52 
f 53//53 52//52 54//54 
f 55//55 53//53 54//54 56//56 
f 50//50 54//54 52//52 
f 57//57 58//58 59//59 
f 60//60 57//57 59//59 
f 55//55 56//56 59//59 58//58 
f 17//17 19//19 61//61 
f 5//5 17//17 61//61 51//51 
f 60//60 61//61 19//19 
f 20//20 60//60 19//19 
f 62//62 63//63 50//50 
f 50//50 64//64 62//62 
f 64//64 3//3 51//51 65//65 
f 66//66 67//67 56//56 54//54 
f 50//50 63//63 66//66 
f 63//63 62//62 60//60 
f 67//67 63//63 68//68 
f 68//68 59//59 56//56 67//67 
f 69//69 62//62 65//65 
f 69//69 65//65 51//51 61//61 
f 50//50 3//3 64//64 
f 61//61 60//60 69//69 
f 54//54 50//50 66//66 
f 60//60 59//59 68//68 
f 7//7 1//1 50//50 
f 20//20 57//57 60//60 
f 70//70 71//71 72//72 
f 73//73 71//71 70//70 
f 74//74 72//72 71//71 75//75 
f 7//7 52//52 73//73 
f 53//53 76//76 52//52 
f 55//55 77//77 76//76 53//53 
f 73//73 52//52 76//76 
f 57//57 78//78 58//58 
f 79//79 78//78 57//57 
f 55//55 58//58 78//78 77//77 
f 80//80 81//81 82//82 
f 74//74 75//75 81//81 80//80 
f 79//79 82//82 81//81 
f 20//20 82//82 79//79 
f 83//83 73//73 84//84 
f 73//73 83//83 85//85 
f 85//85 86//86 75//75 71//71 
f 87//87 76//76 77//77 88//88 
f 73//73 87//87 84//84 
f 84//84 79//79 83//83 
f 88//88 89//89 84//84 
f 89//89 88//88 77//77 78//78 
f 90//90 83//83 79//79 
f 90//90 81//81 75//75 86//86 
f 73//73 85//85 71//71 
f 81//81 90//90 79//79 
f 76//76 87//87 73//73 
f 79//79 89//89 78//78 
f 7//7 73//73 70//70 
f 20//20 79//79 57//57 
f 29//29 91//91 30//30 
f 92//92 91//91 29//29 
f 33//33 30//30 91//91 93//93 
f 7//7 70//70 92//92 
f 72//72 94//94 70//70 
f 74//74 95//95 94//94 72//72 
f 92//92 70//70 94//94 
f 82//82 96//96 80//80 
f 97//97 96//96 82//82 
f 74//74 80//80 96//96 95//95 
f 39//39 98//98 40//40 
f 33//33 93//93 98//98 39//39 
f 97//97 40//40 98//98 
f 20//20 40//40 97//97 
f 99//99 92//92 100//100 
f 92//92 99//99 101//101 
f 101//101 102//102 93//93 91//91 
f 103//103 94//94 95//95 104//104 
f 92//92 103//103 100//100 
f 100//100 97//97 99//99 
f 104//104 105//105 100//100 
f 105//105 104//104 95//95 96//96 
f 106//106 99//99 97//97 
f 106//106 98//98 93//93 102//102 
f 92//92 101//101 91//91 
f 98//98 106//106 97//97 
f 94//94 103//103 92//92 
f 97//97 105//105 96//96 
f 7//7 92//92 29//29 
f 20//20 97//97 82//82 
f 21//21 24//24 23//23 
f 28//28 24//24 21//21 
f 25//25 26//26 22//22 
f 27//27 16//16 22//22 
f 43//43 47//47 46//46 
f 43//43 38//38 48//48 
f 44//44 45//45 42//42 
f 49//49 38//38 42//42 
f 99//99 102//102 101//101 
f 106//106 102//102 99//99 
f 103//103 104//104 100//100 
f 105//105 97//97 100//100 
f 83//83 86//86 85//85 
f 90//90 86//86 83//83 
f 87//87 88//88 84//84 
f 89//89 79//79 84//84 
f 63//63 67//67 66//66 
f 63//63 60//60 68//68 
f 64//64 65//65 62//62 
f 69//69 60//60 62//62 
# 39 polygons - 130 triangles

